<svg width="128" height="128" viewBox="0 0 100 100" fill="none" xmlns="http://www.w3.org/2000/svg">
  <defs>
    <linearGradient id="shieldGrad" x1="0%" y1="0%" x2="100%" y2="100%">
      <stop offset="0%" stop-color="#059669" />
      <stop offset="50%" stop-color="#0d9488" />
      <stop offset="100%" stop-color="#0f766e" />
    </linearGradient>
    <linearGradient id="leafGrad" x1="0%" y1="100%" x2="100%" y2="0%">
      <stop offset="0%" stop-color="#84cc16" />
      <stop offset="100%" stop-color="#10b981" />
    </linearGradient>
    <linearGradient id="radarGrad" x1="0%" y1="0%" x2="100%" y2="100%">
      <stop offset="0%" stop-color="#f59e0b" />
      <stop offset="100%" stop-color="#d97706" />
    </linearGradient>
  </defs>
  <path d="M50 8 L85 22 C85 55 72 78 50 92 C28 78 15 55 15 22 Z" fill="url(#shieldGrad)" stroke="#047857" stroke-width="2.5" />
  <path d="M50 14 L79 26 C79 53 68 73 50 85 C32 73 21 53 21 26 Z" fill="none" stroke="#34d399" stroke-width="1.5" stroke-opacity="0.4" stroke-dasharray="4 2" />
  <path d="M32 42 A 22 22 0 0 1 68 42" fill="none" stroke="url(#radarGrad)" stroke-width="3" stroke-linecap="round" />
  <path d="M37 36 A 16 16 0 0 1 63 36" fill="none" stroke="#fbbf24" stroke-width="2.5" stroke-linecap="round" />
  <path d="M50 30 C36 40 34 58 50 72 C66 58 64 40 50 30 Z" fill="url(#leafGrad)" stroke="#ecfdf5" stroke-width="1.2" />
  <path d="M50 72 Q50 50 50 32 M50 54 Q43 47 38 45 M50 60 Q57 53 62 51" fill="none" stroke="#065f46" stroke-width="2" stroke-linecap="round" />
  <circle cx="50" cy="22" r="3.5" fill="#fbbf24" />
  <circle cx="30" cy="32" r="2.5" fill="#34d399" />
  <circle cx="70" cy="32" r="2.5" fill="#34d399" />
</svg>
